<?xml version="1.0" standalone="no"?>
<!DOCTYPE svg PUBLIC "-//W3C//DTD SVG 20010904//EN"
 "http://www.w3.org/TR/2001/REC-SVG-20010904/DTD/svg10.dtd">
<svg version="1.0" xmlns="http://www.w3.org/2000/svg"
 width="270.000000pt" height="270.000000pt" viewBox="0 0 270.000000 270.000000"
 preserveAspectRatio="xMidYMid meet">
<metadata>
Created by potrace 1.14, written by Peter Selinger 2001-2017
</metadata>
<g transform="translate(0.000000,270.000000) scale(0.100000,-0.100000)"
fill="#000000" stroke="none">
<path d="M1175 1929 c-50 -28 -99 -58 -110 -68 -11 -10 -58 -44 -105 -77 -47
-32 -93 -66 -103 -75 -18 -16 -169 -113 -208 -134 -11 -5 -19 -13 -19 -17 0
-10 -69 -78 -79 -78 -6 0 -21 -11 -35 -25 -16 -16 -36 -25 -55 -25 -29 0 -81
-39 -81 -60 0 -6 -11 -11 -25 -11 -14 -1 -29 -3 -35 -4 -5 -1 -17 -3 -25 -4
-9 0 -27 -12 -40 -25 -13 -14 -32 -26 -42 -28 -15 -3 -18 -15 -19 -80 0 -66 2
-77 18 -81 10 -3 15 -1 12 4 -3 6 2 21 11 35 9 13 13 29 10 34 -3 6 3 10 14
10 12 0 21 -4 21 -9 0 -15 42 -25 50 -12 3 7 20 14 36 17 16 3 31 9 32 15 2 5
11 9 20 9 11 0 13 3 5 11 -7 7 -20 4 -44 -10 -19 -12 -42 -21 -53 -21 -10 0 8
14 40 31 34 18 60 26 62 20 5 -14 42 -14 42 -1 0 6 9 10 19 10 22 0 40 -20 19
-21 -31 -2 -49 -9 -90 -36 -49 -33 -124 -55 -156 -46 -19 5 -22 2 -18 -18 3
-13 5 -27 5 -30 1 -6 47 -29 57 -29 3 0 3 4 0 9 -3 5 8 11 24 15 16 3 48 14
71 25 28 14 37 15 29 5 -10 -11 -9 -14 3 -14 26 0 47 11 41 22 -3 5 2 8 12 6
11 -2 19 3 19 12 0 9 9 14 23 13 16 -2 22 2 22 18 0 15 6 20 23 19 40 -4 49 0
44 15 -4 8 -2 17 3 20 4 3 10 0 12 -6 2 -7 12 0 21 15 18 26 16 46 -4 46 -6 0
-7 -5 -4 -10 8 -13 -38 -4 -73 13 -19 9 -32 6 -76 -16 -57 -29 -71 -33 -61
-17 3 6 -1 7 -9 4 -9 -3 -16 -2 -16 3 0 14 78 43 96 36 12 -4 15 -3 10 5 -5 8
-1 10 10 5 11 -4 15 -3 10 5 -3 6 3 13 14 17 11 3 20 11 20 17 0 7 -5 6 -14
-2 -12 -9 -15 -8 -13 10 1 15 13 28 34 38 18 8 30 19 27 23 -2 4 1 11 7 15 8
4 9 3 5 -4 -4 -7 -3 -12 3 -12 5 0 12 4 16 9 8 14 45 9 45 -7 0 -8 -5 -10 -12
-6 -7 4 -10 4 -6 -1 4 -4 2 -15 -4 -23 -10 -12 -9 -14 7 -11 13 3 21 14 23 31
2 15 10 32 18 38 12 11 13 6 8 -32 -7 -52 6 -83 38 -94 13 -4 29 -15 36 -25 7
-11 17 -19 23 -19 5 0 27 -11 49 -25 21 -14 46 -22 55 -19 8 4 15 1 15 -6 0
-10 3 -10 15 0 12 10 23 9 57 -5 49 -19 181 -29 171 -12 -4 6 0 8 10 4 10 -4
17 -2 17 5 0 7 5 6 15 -2 9 -7 15 -8 15 -2 0 5 16 1 36 -9 21 -10 41 -16 45
-13 5 3 9 -4 9 -16 0 -11 -7 -23 -15 -26 -8 -4 -15 -15 -15 -26 0 -12 -8 -27
-17 -34 -17 -12 -17 -13 -1 -14 17 0 68 44 68 58 0 16 160 185 168 178 7 -7
-20 -48 -49 -77 -16 -16 -29 -33 -29 -38 0 -5 -9 -13 -20 -16 -11 -3 -20 -13
-20 -21 0 -21 -50 -85 -61 -78 -5 3 -14 -7 -20 -23 -6 -16 -13 -23 -17 -17 -4
6 -15 10 -25 8 -33 -5 -28 -11 13 -18 41 -6 64 -1 56 13 -3 4 16 34 41 66 38
49 47 55 55 41 9 -15 12 -15 44 4 18 12 38 19 44 15 6 -4 7 1 3 12 -6 16 -5
16 10 4 15 -12 20 -11 35 3 10 9 23 16 29 16 6 0 14 6 17 13 5 10 7 10 12 0 3
-7 12 -13 19 -13 7 0 16 -6 19 -12 3 -7 4 4 1 24 l-6 38 29 -17 c16 -9 38 -29
48 -45 21 -31 101 -78 133 -78 12 0 20 4 16 10 -3 5 7 3 22 -5 25 -13 28 -13
35 4 6 18 43 38 61 33 4 -1 7 3 7 9 0 8 5 8 15 -1 12 -10 15 -10 15 0 0 8 3
11 6 7 11 -11 42 25 36 45 -4 15 0 19 14 16 15 -2 19 3 17 24 -3 52 60 41 172
-30 22 -15 46 -27 54 -28 7 -2 18 -7 23 -12 15 -15 48 -2 48 19 0 11 5 19 11
19 8 0 9 4 0 13 -6 8 -8 17 -4 20 7 8 -15 37 -29 37 -5 0 -6 -6 -2 -12 4 -8 3
-10 -2 -5 -5 5 -9 12 -9 15 -1 16 -39 78 -51 85 -8 4 -14 15 -14 22 0 8 -4 15
-10 15 -16 0 -84 50 -95 70 -5 10 -25 34 -42 54 -41 44 -100 152 -119 217 -8
27 -20 49 -26 49 -6 0 -21 12 -33 26 l-22 26 -49 -46 c-27 -25 -55 -46 -62
-46 -7 0 -46 -34 -87 -75 -64 -64 -75 -72 -80 -55 -4 11 -13 20 -20 20 -8 0
-24 10 -37 23 -145 140 -282 246 -338 260 -19 5 -48 -7 -115 -44z m617 -307
c-10 -3 -10 -7 -2 -17 9 -11 7 -13 -14 -9 -28 5 -41 -19 -30 -52 6 -16 3 -15
-15 4 l-23 23 39 34 c21 18 42 30 48 27 5 -3 4 -7 -3 -10z m-18 -58 c11 -28 6
-38 -9 -18 -8 10 -15 22 -15 27 0 13 18 7 24 -9z m-1024 -154 c6 0 10 8 10 17
0 15 2 14 19 -3 10 -10 16 -23 13 -28 -2 -4 -8 -2 -13 5 -8 12 -10 12 -18 1
-4 -8 -12 -14 -16 -14 -11 0 -25 24 -25 42 1 12 3 11 11 -2 5 -10 14 -18 19
-18z m760 -10 c0 -6 -7 -13 -15 -16 -8 -4 -15 -10 -15 -14 0 -13 -56 -65 -73
-68 -17 -3 -56 47 -50 64 2 6 21 9 43 7 31 -2 40 1 40 13 0 8 3 13 8 11 4 -3
16 -1 27 4 28 11 35 11 35 -1z m-735 -38 c-3 -3 -11 0 -18 7 -9 10 -8 11 6 5
10 -3 15 -9 12 -12z m-367 -31 c-7 -11 -16 -17 -21 -14 -4 3 0 11 10 19 24 18
25 17 11 -5z m1142 -1 c0 -5 -5 -10 -11 -10 -5 0 -7 5 -4 10 3 6 8 10 11 10 2
0 4 -4 4 -10z m441 -7 c13 -16 12 -17 -3 -4 -10 7 -18 15 -18 17 0 8 8 3 21
-13z m-1435 -28 c-8 -10 -14 -10 -25 -1 -12 8 -13 8 -7 -1 8 -15 5 -16 -19 -7
-23 9 0 23 36 22 21 -1 24 -4 15 -13z m1397 2 c3 -8 -3 -14 -14 -14 -10 -1
-19 3 -19 8 0 6 5 7 10 4 6 -3 10 -1 10 4 0 15 7 14 13 -2z"/>
<path d="M586 1421 c-3 -5 1 -11 9 -14 9 -4 12 -1 8 9 -6 16 -10 17 -17 5z"/>
<path d="M615 1370 c-8 -13 5 -13 25 0 13 8 13 10 -2 10 -9 0 -20 -4 -23 -10z"/>
<path d="M642 1359 c-35 -13 -17 -30 18 -17 17 5 30 11 30 13 0 9 -28 11 -48
4z"/>
<path d="M590 1340 c-8 -5 -12 -12 -9 -15 4 -3 12 1 19 10 14 17 11 19 -10 5z"/>
<path d="M666 1332 c-3 -6 -1 -14 5 -17 15 -10 25 3 12 16 -7 7 -13 7 -17 1z"/>
<path d="M260 1201 c0 -6 4 -13 10 -16 6 -3 7 1 4 9 -7 18 -14 21 -14 7z"/>
<path d="M1404 1158 l-19 -23 23 19 c21 18 27 26 19 26 -2 0 -12 -10 -23 -22z"/>
<path d="M345 1110 c-3 -5 1 -10 9 -10 9 0 16 5 16 10 0 6 -4 10 -9 10 -6 0
-13 -4 -16 -10z"/>
<path d="M142 1024 c-39 -16 -60 -50 -58 -92 2 -47 36 -77 104 -94 37 -9 57
-19 57 -28 0 -21 -50 -24 -95 -6 -38 15 -39 15 -55 -10 -36 -56 21 -83 158
-76 42 3 87 52 87 95 0 49 -25 74 -99 100 -34 12 -63 27 -62 32 1 16 46 17 83
2 35 -15 35 -15 53 19 18 33 18 35 -1 49 -10 8 -32 15 -49 16 -16 1 -44 2 -61
4 -18 1 -46 -4 -62 -11z"/>
<path d="M580 1032 l-25 -3 1 -150 c1 -82 3 -151 5 -153 6 -6 30 -9 62 -7 l28
1 -2 154 c-3 170 -1 166 -69 158z"/>
<path d="M872 878 l3 -153 123 -3 122 -3 0 36 c0 39 3 38 -102 36 -55 -1 -58
0 -58 24 0 14 3 25 8 26 4 1 23 2 42 4 19 2 38 3 41 4 3 1 5 11 3 24 -1 12 -3
28 -3 35 -1 10 -14 13 -43 10 -38 -2 -43 0 -46 19 -3 21 0 22 65 20 79 -1 91
4 87 35 -1 13 -3 26 -3 31 -1 4 -55 7 -122 7 l-121 0 4 -152z"/>
<path d="M1333 876 l2 -156 43 0 c26 0 42 5 43 13 0 6 1 28 2 47 3 54 28 50
61 -10 26 -48 29 -50 72 -50 24 0 44 3 44 8 0 4 -13 29 -28 56 l-28 49 27 30
c24 26 28 37 23 71 -9 73 -44 93 -171 95 l-91 2 1 -155z m168 68 c20 -24 -1
-48 -45 -52 -35 -3 -36 -2 -36 32 0 34 2 36 34 36 18 0 39 -7 47 -16z"/>
<path d="M1814 898 c2 -73 5 -143 5 -155 1 -20 6 -23 41 -23 43 0 44 1 41 67
-2 35 1 41 16 39 10 -1 30 -25 46 -54 27 -51 29 -52 73 -52 24 0 44 3 44 7 0
4 -12 32 -27 62 -21 39 -25 55 -15 58 21 8 39 56 35 93 -2 23 -14 45 -34 63
-28 26 -34 27 -129 27 l-100 0 4 -132z m172 40 c8 -27 -20 -50 -56 -46 -20 2
-26 9 -28 36 -3 31 -2 32 37 32 32 0 41 -4 47 -22z"/>
<path d="M2325 880 c-28 -83 -48 -150 -45 -151 3 0 14 -2 25 -5 35 -7 64 5 71
30 5 20 11 23 52 22 40 -1 48 -5 60 -28 11 -23 18 -26 52 -24 22 1 41 6 42 10
1 4 -25 72 -57 152 l-59 144 -45 0 -46 0 -50 -150z m119 -31 c-6 -10 -39 -4
-39 7 0 5 4 24 9 43 l8 35 14 -39 c7 -21 11 -42 8 -46z"/>
</g>
</svg>
